<svg xmlns="http://www.w3.org/2000/svg" viewBox="0 0 64 64" fill="none">
  <rect width="64" height="64" rx="18" fill="#E9F0FF"/>
  <rect x="17" y="7" width="30" height="50" rx="8" fill="#14233D"/>
  <rect x="20" y="12" width="24" height="39" rx="4" fill="#FFFFFF"/>
  <path d="M28 15h8" stroke="#14233D" stroke-width="2" stroke-linecap="round"/>
  <circle cx="32" cy="54" r="1.7" fill="#E9F0FF"/>
  <path d="M24 29.5a2.5 2.5 0 0 1 2.5-2.5h11a2.5 2.5 0 0 1 2.5 2.5v12a2.5 2.5 0 0 1-2.5 2.5h-11a2.5 2.5 0 0 1-2.5-2.5v-12Z" fill="#3475E5"/>
  <path d="M28 29v-2a4 4 0 0 1 8 0v2" stroke="#F3B84B" stroke-width="2.4" stroke-linecap="round"/>
  <path d="M27 34h10M27 38h7" stroke="#D9E7FF" stroke-width="1.5" stroke-linecap="round"/>
</svg>
